<?xml version="1.0" encoding="UTF-8" standalone="no"?><!DOCTYPE svg PUBLIC "-//W3C//DTD SVG 1.1//EN" "http://www.w3.org/Graphics/SVG/1.1/DTD/svg11.dtd"><svg width="100%" height="100%" viewBox="0 0 128 128" version="1.1" xmlns="http://www.w3.org/2000/svg" xmlns:xlink="http://www.w3.org/1999/xlink" xml:space="preserve" style="fill-rule:evenodd;clip-rule:evenodd;stroke-linejoin:round;stroke-miterlimit:1.41421;"><g id="Livello1"><rect x="0" y="0" width="42" height="85" style="fill:#009246;"/><rect x="86" y="0" width="42" height="85" style="fill:#ce2b37;"/><path d="M49.518,104.833c0,0.578 -0.107,1.066 -0.322,1.463c-0.215,0.396 -0.504,0.716 -0.868,0.959c-0.364,0.242 -0.784,0.42 -1.26,0.532c-0.476,0.112 -0.971,0.168 -1.484,0.168l-1.19,0l0,3.738l-2.394,0l0,-9.912l3.64,0c0.541,0 1.048,0.053 1.519,0.161c0.471,0.107 0.882,0.28 1.232,0.518c0.35,0.238 0.625,0.55 0.826,0.938c0.201,0.387 0.301,0.865 0.301,1.435Zm-2.394,0.014c0,-0.234 -0.047,-0.425 -0.14,-0.574c-0.093,-0.15 -0.219,-0.266 -0.378,-0.35c-0.159,-0.084 -0.338,-0.14 -0.539,-0.168c-0.201,-0.028 -0.408,-0.042 -0.623,-0.042l-1.05,0l0,2.338l1.008,0c0.224,0 0.439,-0.019 0.644,-0.056c0.205,-0.038 0.39,-0.103 0.553,-0.196c0.163,-0.094 0.292,-0.217 0.385,-0.371c0.093,-0.154 0.14,-0.348 0.14,-0.581Z" style="fill:#919191;fill-rule:nonzero;"/><path d="M50.96,111.693l0,-9.912l6.664,0l0,2.03l-4.354,0l0,1.862l4.116,0l0,1.918l-4.116,0l0,2.058l4.606,0l0,2.044l-6.916,0Z" style="fill:#919191;fill-rule:nonzero;"/><path d="M64.764,111.693l-2.142,-3.934l-0.812,0l0,3.934l-2.352,0l0,-9.912l3.78,0c0.476,0 0.94,0.049 1.393,0.147c0.453,0.098 0.859,0.263 1.218,0.497c0.359,0.233 0.646,0.541 0.861,0.924c0.215,0.382 0.322,0.858 0.322,1.428c0,0.672 -0.182,1.236 -0.546,1.694c-0.364,0.457 -0.868,0.784 -1.512,0.98l2.59,4.242l-2.8,0Zm-0.098,-6.874c0,-0.234 -0.049,-0.423 -0.147,-0.567c-0.098,-0.145 -0.224,-0.257 -0.378,-0.336c-0.154,-0.08 -0.327,-0.133 -0.518,-0.161c-0.191,-0.028 -0.376,-0.042 -0.553,-0.042l-1.274,0l0,2.31l1.134,0c0.196,0 0.397,-0.017 0.602,-0.049c0.205,-0.033 0.392,-0.091 0.56,-0.175c0.168,-0.084 0.306,-0.206 0.413,-0.364c0.107,-0.159 0.161,-0.364 0.161,-0.616Z" style="fill:#919191;fill-rule:nonzero;"/><path d="M73.976,104.357c-0.205,-0.262 -0.474,-0.469 -0.805,-0.623c-0.331,-0.154 -0.651,-0.231 -0.959,-0.231c-0.159,0 -0.32,0.014 -0.483,0.042c-0.163,0.028 -0.31,0.081 -0.441,0.161c-0.131,0.079 -0.24,0.182 -0.329,0.308c-0.089,0.126 -0.133,0.287 -0.133,0.483c0,0.168 0.035,0.308 0.105,0.42c0.07,0.112 0.173,0.21 0.308,0.294c0.135,0.084 0.296,0.161 0.483,0.231c0.187,0.07 0.397,0.142 0.63,0.217c0.336,0.112 0.686,0.235 1.05,0.371c0.364,0.135 0.695,0.315 0.994,0.539c0.299,0.224 0.546,0.501 0.742,0.833c0.196,0.331 0.294,0.744 0.294,1.239c0,0.569 -0.105,1.061 -0.315,1.477c-0.21,0.415 -0.492,0.758 -0.847,1.029c-0.355,0.27 -0.761,0.471 -1.218,0.602c-0.457,0.13 -0.929,0.196 -1.414,0.196c-0.709,0 -1.395,-0.124 -2.058,-0.371c-0.663,-0.248 -1.213,-0.6 -1.652,-1.057l1.568,-1.596c0.243,0.298 0.562,0.548 0.959,0.749c0.397,0.2 0.791,0.301 1.183,0.301c0.177,0 0.35,-0.019 0.518,-0.056c0.168,-0.038 0.315,-0.098 0.441,-0.182c0.126,-0.084 0.226,-0.196 0.301,-0.336c0.075,-0.14 0.112,-0.308 0.112,-0.504c0,-0.187 -0.047,-0.346 -0.14,-0.476c-0.093,-0.131 -0.226,-0.25 -0.399,-0.357c-0.173,-0.108 -0.387,-0.206 -0.644,-0.294c-0.257,-0.089 -0.548,-0.185 -0.875,-0.287c-0.317,-0.103 -0.628,-0.224 -0.931,-0.364c-0.303,-0.14 -0.574,-0.32 -0.812,-0.539c-0.238,-0.22 -0.429,-0.486 -0.574,-0.798c-0.145,-0.313 -0.217,-0.693 -0.217,-1.141c0,-0.551 0.112,-1.022 0.336,-1.414c0.224,-0.392 0.518,-0.714 0.882,-0.966c0.364,-0.252 0.775,-0.437 1.232,-0.553c0.457,-0.117 0.919,-0.175 1.386,-0.175c0.56,0 1.132,0.102 1.715,0.308c0.583,0.205 1.094,0.508 1.533,0.91l-1.526,1.61Z" style="fill:#919191;fill-rule:nonzero;"/><path d="M87.346,106.695c0,0.784 -0.135,1.5 -0.406,2.149c-0.271,0.648 -0.646,1.204 -1.127,1.666c-0.481,0.462 -1.052,0.819 -1.715,1.071c-0.663,0.252 -1.381,0.378 -2.156,0.378c-0.775,0 -1.491,-0.126 -2.149,-0.378c-0.658,-0.252 -1.227,-0.609 -1.708,-1.071c-0.481,-0.462 -0.856,-1.018 -1.127,-1.666c-0.271,-0.649 -0.406,-1.365 -0.406,-2.149c0,-0.794 0.135,-1.51 0.406,-2.149c0.271,-0.64 0.646,-1.183 1.127,-1.631c0.481,-0.448 1.05,-0.794 1.708,-1.036c0.658,-0.243 1.374,-0.364 2.149,-0.364c0.775,0 1.493,0.121 2.156,0.364c0.663,0.242 1.234,0.588 1.715,1.036c0.481,0.448 0.856,0.991 1.127,1.631c0.271,0.639 0.406,1.355 0.406,2.149Zm-2.562,0c0,-0.43 -0.07,-0.831 -0.21,-1.204c-0.14,-0.374 -0.334,-0.693 -0.581,-0.959c-0.247,-0.266 -0.546,-0.476 -0.896,-0.63c-0.35,-0.154 -0.735,-0.231 -1.155,-0.231c-0.42,0 -0.803,0.077 -1.148,0.231c-0.345,0.154 -0.644,0.364 -0.896,0.63c-0.252,0.266 -0.446,0.585 -0.581,0.959c-0.135,0.373 -0.203,0.774 -0.203,1.204c0,0.448 0.07,0.861 0.21,1.239c0.14,0.378 0.334,0.702 0.581,0.973c0.247,0.27 0.544,0.483 0.889,0.637c0.345,0.154 0.728,0.231 1.148,0.231c0.42,0 0.803,-0.077 1.148,-0.231c0.345,-0.154 0.644,-0.367 0.896,-0.637c0.252,-0.271 0.448,-0.595 0.588,-0.973c0.14,-0.378 0.21,-0.791 0.21,-1.239Z" style="fill:#919191;fill-rule:nonzero;"/><path d="M95.228,111.693l-3.99,-6.482l-0.042,0l0.056,6.482l-2.324,0l0,-9.912l2.73,0l3.976,6.468l0.042,0l-0.056,-6.468l2.324,0l0,9.912l-2.716,0Z" style="fill:#919191;fill-rule:nonzero;"/><path d="M106.708,111.693l-0.77,-1.946l-3.836,0l-0.728,1.946l-2.604,0l4.158,-9.912l2.324,0l4.116,9.912l-2.66,0Zm-2.66,-7.266l-1.26,3.402l2.492,0l-1.232,-3.402Z" style="fill:#919191;fill-rule:nonzero;"/><path d="M110.194,111.693l0,-9.912l2.408,0l0,7.826l3.836,0l0,2.086l-6.244,0Z" style="fill:#919191;fill-rule:nonzero;"/><path d="M117.558,111.693l0,-9.912l6.664,0l0,2.03l-4.354,0l0,1.862l4.116,0l0,1.918l-4.116,0l0,2.058l4.606,0l0,2.044l-6.916,0Z" style="fill:#919191;fill-rule:nonzero;"/><path d="M36.743,118.119c0,-5.054 -1.185,-12.814 -7.737,-12.814c-0.694,0 -3.623,3.109 -8.006,3.109c-4.383,0 -7.312,-3.109 -8.006,-3.109c-6.552,0 -7.737,7.76 -7.737,12.814c0,3.623 2.415,5.792 5.971,5.792l19.544,0c3.556,0 5.971,-2.169 5.971,-5.792Zm-7.156,-19.969c0,-4.741 -3.846,-8.588 -8.587,-8.588c-4.741,0 -8.587,3.847 -8.587,8.588c0,4.74 3.846,8.587 8.587,8.587c4.741,0 8.587,-3.847 8.587,-8.587Z" style="fill:#919191;fill-rule:nonzero;"/></g></svg>